<svg width="24" height="24" viewBox="0 0 24 24" fill="none" xmlns="http://www.w3.org/2000/svg">
<path fill-rule="evenodd" clip-rule="evenodd" d="M18.8536 4.85355C19.0488 4.65829 19.0488 4.34171 18.8536 4.14645C18.6583 3.95118 18.3417 3.95118 18.1464 4.14645L16.2248 6.0681L12 5L6.06685 6.5C5.88079 9.98084 6.03081 12.8775 7.19269 15.1002L4.14645 18.1464C3.95118 18.3417 3.95118 18.6583 4.14645 18.8536C4.34171 19.0488 4.65829 19.0488 4.85355 18.8536L18.8536 4.85355ZM7.93904 14.3539L15.4015 6.89141L12 6.03146L7.03121 7.28766C6.92429 10.0118 7.0768 12.2096 7.76311 13.9447C7.81804 14.0835 7.8766 14.2199 7.93904 14.3539ZM12 19C10.7135 18.5354 9.68672 17.9448 8.87258 17.2345L9.58154 16.5256C10.2192 17.0707 11.0122 17.5405 12 17.9311C14.3088 17.0182 15.5536 15.6721 16.2369 13.9447C16.7631 12.6144 16.9755 11.0122 16.9978 9.10933L17.9937 8.11345C18.0941 13.4246 17.0413 17.1792 12 19Z" fill="#FF4F5E"/>
</svg>
