<svg width="24" height="24" viewBox="0 0 24 24" fill="none" xmlns="http://www.w3.org/2000/svg">
<path fill-rule="evenodd" clip-rule="evenodd" d="M7.76311 13.9447C7.0768 12.2096 6.92429 10.0118 7.03121 7.28766L12 6.03146L16.9688 7.28766C17.0757 10.0118 16.9232 12.2096 16.2369 13.9447C15.5536 15.6721 14.3088 17.0182 12 17.9311C9.69116 17.0182 8.44637 15.6721 7.76311 13.9447ZM6.06685 6.5L12 5L17.9331 6.5C18.2628 12.6667 17.5376 17 12 19C6.46239 17 5.73723 12.6667 6.06685 6.5ZM9.03343 8.80357L12 8V15.5C9.2312 14.4286 8.86862 12.1071 9.03343 8.80357Z" fill="#3FE1B0"/>
</svg>
