<svg width="24" height="24" viewBox="0 0 24 24" fill="none" xmlns="http://www.w3.org/2000/svg">
<path d="M12 8L9.03343 8.80357C8.86862 12.1071 9.2312 14.4286 12 15.5V8Z" fill="#3FE1B0"/>
<mask id="path-2-inside-1" fill="white">
<path fill-rule="evenodd" clip-rule="evenodd" d="M12.1112 6.05957C12.1911 5.72789 12.3123 5.41232 12.4692 5.11862L12 5L6.06685 6.5C5.73723 12.6667 6.46239 17 12 19C16.2506 17.4648 17.6658 14.5548 17.9449 10.4962C17.6242 10.675 17.2764 10.8109 16.9091 10.8962C16.8011 12.0402 16.5894 13.0535 16.2369 13.9447C15.5536 15.6721 14.3088 17.0182 12 17.9311C9.69116 17.0182 8.44637 15.6721 7.76311 13.9447C7.0768 12.2096 6.92429 10.0118 7.03121 7.28766L12 6.03146L12.1112 6.05957Z"/>
</mask>
<path fill-rule="evenodd" clip-rule="evenodd" d="M12.1112 6.05957C12.1911 5.72789 12.3123 5.41232 12.4692 5.11862L12 5L6.06685 6.5C5.73723 12.6667 6.46239 17 12 19C16.2506 17.4648 17.6658 14.5548 17.9449 10.4962C17.6242 10.675 17.2764 10.8109 16.9091 10.8962C16.8011 12.0402 16.5894 13.0535 16.2369 13.9447C15.5536 15.6721 14.3088 17.0182 12 17.9311C9.69116 17.0182 8.44637 15.6721 7.76311 13.9447C7.0768 12.2096 6.92429 10.0118 7.03121 7.28766L12 6.03146L12.1112 6.05957Z" fill="#3FE1B0"/>
<path d="M12.1112 6.05957L11.8661 7.02907L12.8465 7.27693L13.0833 6.29383L12.1112 6.05957ZM12.4692 5.11862L13.3513 5.58963L13.9532 4.46235L12.7143 4.14912L12.4692 5.11862ZM12 5L12.2451 4.0305L12 3.96854L11.7549 4.0305L12 5ZM6.06685 6.5L5.82175 5.5305L5.10759 5.71105L5.06828 6.44662L6.06685 6.5ZM12 19L11.6603 19.9405L12 20.0632L12.3397 19.9405L12 19ZM17.9449 10.4962L18.9425 10.5648L19.0691 8.72456L17.458 9.62273L17.9449 10.4962ZM16.9091 10.8962L16.6827 9.9222L15.9813 10.0852L15.9135 10.8022L16.9091 10.8962ZM16.2369 13.9447L17.1668 14.3125L16.2369 13.9447ZM12 17.9311L11.6323 18.861L12 19.0064L12.3677 18.861L12 17.9311ZM7.76311 13.9447L8.69301 13.5769L7.76311 13.9447ZM7.03121 7.28766L6.7861 6.31816L6.0613 6.5014L6.03198 7.24844L7.03121 7.28766ZM12 6.03146L12.2451 5.06197L12 5L11.7549 5.06197L12 6.03146ZM13.0833 6.29383C13.1431 6.04578 13.2338 5.80967 13.3513 5.58963L11.5871 4.6476C11.3909 5.01498 11.2391 5.41 11.139 5.82531L13.0833 6.29383ZM12.7143 4.14912L12.2451 4.0305L11.7549 5.9695L12.2241 6.08811L12.7143 4.14912ZM11.7549 4.0305L5.82175 5.5305L6.31196 7.4695L12.2451 5.9695L11.7549 4.0305ZM5.06828 6.44662C4.90257 9.5468 4.98568 12.3604 5.90332 14.6803C6.85186 17.0784 8.65051 18.8535 11.6603 19.9405L12.3397 18.0595C9.81188 17.1465 8.47915 15.755 7.76311 13.9447C7.01618 12.0563 6.90152 9.61987 7.06543 6.55338L5.06828 6.44662ZM12.3397 19.9405C14.6326 19.1124 16.243 17.8788 17.3022 16.2363C18.3489 14.613 18.7969 12.6831 18.9425 10.5648L16.9472 10.4276C16.8138 12.3679 16.4146 13.9223 15.6213 15.1525C14.8405 16.3634 13.618 17.3524 11.6603 18.0595L12.3397 19.9405ZM17.458 9.62273C17.2177 9.7567 16.9574 9.85837 16.6827 9.9222L17.1355 11.8703C17.5953 11.7634 18.0307 11.5932 18.4318 11.3696L17.458 9.62273ZM17.1668 14.3125C17.5637 13.3091 17.7907 12.1977 17.9047 10.9903L15.9135 10.8022C15.8115 11.8827 15.6151 12.7979 15.307 13.5769L17.1668 14.3125ZM12.3677 18.861C14.9147 17.854 16.3746 16.3152 17.1668 14.3125L15.307 13.5769C14.7326 15.029 13.703 16.1825 11.6323 17.0011L12.3677 18.861ZM6.83322 14.3125C7.62536 16.3152 9.08527 17.854 11.6323 18.861L12.3677 17.0011C10.2971 16.1825 9.26739 15.029 8.69301 13.5769L6.83322 14.3125ZM6.03198 7.24844C5.92391 10.002 6.06677 12.3748 6.83322 14.3125L8.69301 13.5769C8.08684 12.0444 7.92468 10.0215 8.03044 7.32687L6.03198 7.24844ZM11.7549 5.06197L6.7861 6.31816L7.27631 8.25715L12.2451 7.00096L11.7549 5.06197ZM12.3563 5.09007L12.2451 5.06197L11.7549 7.00096L11.8661 7.02907L12.3563 5.09007Z" fill="#3FE1B0" mask="url(#path-2-inside-1)"/>
<rect x="14" y="5" width="4" height="4" rx="2" fill="#FFA436"/>
</svg>
