<svg width="16" height="16" viewBox="0 0 16 16" fill="none" xmlns="http://www.w3.org/2000/svg">
<path d="M15.8451 6.06406C15.7827 5.87748 15.6714 5.71105 15.5228 5.58213C15.3741 5.45321 15.1936 5.3665 15.0001 5.33106L10.9111 4.60006L8.98512 0.73506C8.89389 0.552012 8.75343 0.398023 8.57952 0.290388C8.40562 0.182752 8.20514 0.125732 8.00062 0.125732C7.7961 0.125732 7.59562 0.182752 7.42172 0.290388C7.24781 0.398023 7.10735 0.552012 7.01612 0.73506L5.08912 4.60006L1.00812 5.32906C0.812928 5.36316 0.630571 5.44935 0.480315 5.57852C0.330059 5.70769 0.217486 5.87506 0.154488 6.06292C0.09149 6.25079 0.0804075 6.45219 0.122411 6.64583C0.164415 6.83948 0.257945 7.01818 0.39312 7.16306L3.32012 10.3101L2.71112 14.6701C2.68304 14.8704 2.71074 15.0746 2.79117 15.2602C2.8716 15.4458 3.00165 15.6056 3.16702 15.7221C3.33239 15.8386 3.52668 15.9072 3.72853 15.9204C3.93037 15.9336 4.13196 15.891 4.31112 15.7971L8.00012 13.8731L11.6901 15.8001C11.8693 15.894 12.0709 15.9366 12.2727 15.9234C12.4746 15.9102 12.6688 15.8416 12.8342 15.7251C12.9996 15.6086 13.1296 15.4488 13.2101 15.2632C13.2905 15.0776 13.3182 14.8734 13.2901 14.6731L12.6801 10.3101L15.6061 7.16406C15.7413 7.01923 15.8349 6.84057 15.877 6.64695C15.9191 6.45333 15.908 6.25194 15.8451 6.06406V6.06406Z" fill="#E27F2E"/>
</svg>
