<svg width="80" height="80" viewBox="0 0 80 80" fill="none" xmlns="http://www.w3.org/2000/svg">
<path d="M71.9454 15.7301C64.734 6.14691 53.5687 0.364337 41.5955 0.0116494C32.3093 -0.174676 25.8946 2.6212 22.2654 4.86912C27.1214 2.0472 34.149 0.446408 40.3017 0.525546C56.1286 0.725895 73.1271 11.5257 75.6516 30.9917C78.551 53.3367 63.0172 71.9862 41.1656 72.0433C17.1254 72.1044 2.50336 50.7772 6.32559 31.6208C6.39666 30.6815 6.53465 29.7485 6.7385 28.8289C7.21013 23.9193 8.63417 19.1492 10.9307 14.7864C8.16222 16.2219 4.63693 20.7618 2.89728 24.9672C0.364895 31.3834 -0.52795 38.3318 0.299801 45.1814C0.359789 45.7003 0.413778 46.2183 0.481764 46.7331C3.32092 63.1133 15.9462 76.0435 32.2283 79.2465C48.5104 82.4495 65.0778 75.2621 73.8874 61.1735C82.6971 47.0849 81.9247 29.0126 71.9454 15.7301Z" fill="url(#paint0_radial)"/>
<path opacity="0.67" d="M71.9454 15.7301C64.734 6.14691 53.5687 0.364337 41.5955 0.0116494C32.3093 -0.174676 25.8946 2.6212 22.2654 4.86912C27.1214 2.0472 34.149 0.446408 40.3017 0.525546C56.1286 0.725895 73.1271 11.5257 75.6516 30.9917C78.551 53.3367 63.0172 71.9862 41.1656 72.0433C17.1254 72.1044 2.50336 50.7772 6.32559 31.6208C6.39666 30.6815 6.53465 29.7485 6.7385 28.8289C7.21013 23.9193 8.63417 19.1492 10.9307 14.7864C8.16222 16.2219 4.63693 20.7618 2.89728 24.9672C0.364895 31.3834 -0.52795 38.3318 0.299801 45.1814C0.359789 45.7003 0.413778 46.2183 0.481764 46.7331C3.32092 63.1133 15.9462 76.0435 32.2283 79.2465C48.5104 82.4495 65.0778 75.2621 73.8874 61.1735C82.6971 47.0849 81.9247 29.0126 71.9454 15.7301Z" fill="url(#paint1_radial)"/>
<path d="M71.9454 15.7301C64.734 6.14691 53.5687 0.364337 41.5955 0.0116494C32.3093 -0.174676 25.8946 2.6212 22.2654 4.86912C27.1214 2.0472 34.149 0.446408 40.3017 0.525546C56.1286 0.725895 73.1271 11.5257 75.6516 30.9917C78.551 53.3367 63.0172 71.9862 41.1656 72.0433C17.1254 72.1044 2.50336 50.7772 6.32559 31.6208C6.39666 30.6815 6.53465 29.7485 6.7385 28.8289C7.21013 23.9193 8.63417 19.1492 10.9307 14.7864C8.16222 16.2219 4.63693 20.7618 2.89728 24.9672C0.364895 31.3834 -0.52795 38.3318 0.299801 45.1814C0.359789 45.7003 0.413778 46.2183 0.481764 46.7331C3.32092 63.1133 15.9462 76.0435 32.2283 79.2465C48.5104 82.4495 65.0778 75.2621 73.8874 61.1735C82.6971 47.0849 81.9247 29.0126 71.9454 15.7301Z" fill="url(#paint2_radial)"/>
<path d="M71.9454 15.7301C64.734 6.14691 53.5687 0.364337 41.5955 0.0116494C32.3093 -0.174676 25.8946 2.6212 22.2654 4.86912C27.1214 2.0472 34.149 0.446408 40.3017 0.525546C56.1286 0.725895 73.1271 11.5257 75.6516 30.9917C78.551 53.3367 63.0172 71.9862 41.1656 72.0433C17.1254 72.1044 2.50336 50.7772 6.32559 31.6208C6.39666 30.6815 6.53465 29.7485 6.7385 28.8289C7.21013 23.9193 8.63417 19.1492 10.9307 14.7864C8.16222 16.2219 4.63693 20.7618 2.89728 24.9672C0.364895 31.3834 -0.52795 38.3318 0.299801 45.1814C0.359789 45.7003 0.413778 46.2183 0.481764 46.7331C3.32092 63.1133 15.9462 76.0435 32.2283 79.2465C48.5104 82.4495 65.0778 75.2621 73.8874 61.1735C82.6971 47.0849 81.9247 29.0126 71.9454 15.7301Z" fill="url(#paint3_radial)"/>
<path d="M71.9454 15.7301C64.734 6.14691 53.5687 0.364337 41.5955 0.0116494C32.3093 -0.174676 25.8946 2.6212 22.2654 4.86912C27.1214 2.0472 34.149 0.446408 40.3017 0.525546C56.1286 0.725895 73.1271 11.5257 75.6516 30.9917C78.551 53.3367 63.0172 71.9862 41.1656 72.0433C17.1254 72.1044 2.50336 50.7772 6.32559 31.6208C6.39666 30.6815 6.53465 29.7485 6.7385 28.8289C7.21013 23.9193 8.63417 19.1492 10.9307 14.7864C8.16222 16.2219 4.63693 20.7618 2.89728 24.9672C0.364895 31.3834 -0.52795 38.3318 0.299801 45.1814C0.359789 45.7003 0.413778 46.2183 0.481764 46.7331C3.32092 63.1133 15.9462 76.0435 32.2283 79.2465C48.5104 82.4495 65.0778 75.2621 73.8874 61.1735C82.6971 47.0849 81.9247 29.0126 71.9454 15.7301Z" fill="url(#paint4_radial)"/>
<path d="M75.6523 30.9903C75.9661 33.3966 76.0665 35.826 75.9523 38.25C77.2787 38.0497 78.6074 37.8727 79.9385 37.7191C79.5171 29.7555 76.7344 22.0989 71.9461 15.7287C64.7348 6.14557 53.5695 0.362995 41.5962 0.0103066C32.3101 -0.176018 25.8954 2.61986 22.2661 4.86778C27.1221 2.04586 34.1497 0.445065 40.3025 0.524203C56.1293 0.726556 73.1279 11.5214 75.6523 30.9903Z" fill="url(#paint5_linear)"/>
<path d="M76.6258 29.8794C74.3753 9.53596 56.2679 0.392009 40.3021 0.52424C34.1484 0.574328 27.1218 2.04589 22.2658 4.86782C20.9808 5.63123 19.7867 6.53864 18.7065 7.57254C18.8354 7.46535 19.2204 7.14779 19.8582 6.70903L19.9212 6.66595L19.9772 6.62789C22.3337 5.03155 24.93 3.82352 27.6677 3.04965C31.9563 1.86191 36.4015 1.34061 40.848 1.50395C57.9477 2.52707 71.4726 16.4005 72.0917 33.5529C72.4586 46.7829 61.6518 57.3313 49.1943 57.9424C40.1342 58.3872 31.5979 53.9945 27.4287 45.2072C26.4534 43.2059 25.7911 41.0662 25.4651 38.8631C23.4895 25.4898 32.4527 14.0849 40.672 11.261C36.2379 7.3802 25.1272 7.64366 16.8578 13.7393C10.903 18.1289 7.03983 24.8076 5.76008 32.7725C4.83938 38.8839 5.65 45.1315 8.09961 50.8039C13.2881 63.0704 24.917 71.3739 38.1825 72.2844C39.175 72.3605 40.1695 72.3983 41.1659 72.3976C67.6226 72.3976 79.1003 52.2755 76.6258 29.8794Z" fill="url(#paint6_radial)"/>
<path d="M76.6258 29.8794C74.3753 9.53596 56.2679 0.392009 40.3021 0.52424C34.1484 0.574328 27.1218 2.04589 22.2658 4.86782C20.9808 5.63123 19.7867 6.53864 18.7065 7.57254C18.8354 7.46535 19.2204 7.14779 19.8582 6.70903L19.9212 6.66595L19.9772 6.62789C22.3337 5.03155 24.93 3.82352 27.6677 3.04965C31.9563 1.86191 36.4015 1.34061 40.848 1.50395C57.9477 2.52707 71.4726 16.4005 72.0917 33.5529C72.4586 46.7829 61.6518 57.3313 49.1943 57.9424C40.1342 58.3872 31.5979 53.9945 27.4287 45.2072C26.4534 43.2059 25.7911 41.0662 25.4651 38.8631C23.4895 25.4898 32.4527 14.0849 40.672 11.261C36.2379 7.3802 25.1272 7.64366 16.8578 13.7393C10.903 18.1289 7.03983 24.8076 5.76008 32.7725C4.83938 38.8839 5.65 45.1315 8.09961 50.8039C13.2881 63.0704 24.917 71.3739 38.1825 72.2844C39.175 72.3605 40.1695 72.3983 41.1659 72.3976C67.6226 72.3976 79.1003 52.2755 76.6258 29.8794Z" fill="url(#paint7_radial)"/>
<g style="mix-blend-mode:multiply" opacity="0.53">
<path d="M76.6258 29.8794C74.3753 9.53596 56.2679 0.392009 40.3021 0.52424C34.1484 0.574328 27.1218 2.04589 22.2658 4.86782C20.9808 5.63123 19.7867 6.53864 18.7065 7.57254C18.8354 7.46535 19.2204 7.14779 19.8582 6.70903L19.9212 6.66595L19.9772 6.62789C22.3337 5.03155 24.93 3.82352 27.6677 3.04965C31.9563 1.86191 36.4015 1.34061 40.848 1.50395C57.9477 2.52707 71.4726 16.4005 72.0917 33.5529C72.4586 46.7829 61.6518 57.3313 49.1943 57.9424C40.1342 58.3872 31.5979 53.9945 27.4287 45.2072C26.4534 43.2059 25.7911 41.0662 25.4651 38.8631C23.4895 25.4898 32.4527 14.0849 40.672 11.261C36.2379 7.3802 25.1272 7.64366 16.8578 13.7393C10.903 18.1289 7.03983 24.8076 5.76008 32.7725C4.83938 38.8839 5.65 45.1315 8.09961 50.8039C13.2881 63.0704 24.917 71.3739 38.1825 72.2844C39.175 72.3605 40.1695 72.3983 41.1659 72.3976C67.6226 72.3976 79.1003 52.2755 76.6258 29.8794Z" fill="url(#paint8_radial)"/>
</g>
<g style="mix-blend-mode:multiply" opacity="0.53">
<path d="M76.6258 29.8794C74.3753 9.53596 56.2679 0.392009 40.3021 0.52424C34.1484 0.574328 27.1218 2.04589 22.2658 4.86782C20.9808 5.63123 19.7867 6.53864 18.7065 7.57254C18.8354 7.46535 19.2204 7.14779 19.8582 6.70903L19.9212 6.66595L19.9772 6.62789C22.3337 5.03155 24.93 3.82352 27.6677 3.04965C31.9563 1.86191 36.4015 1.34061 40.848 1.50395C57.9477 2.52707 71.4726 16.4005 72.0917 33.5529C72.4586 46.7829 61.6518 57.3313 49.1943 57.9424C40.1342 58.3872 31.5979 53.9945 27.4287 45.2072C26.4534 43.2059 25.7911 41.0662 25.4651 38.8631C23.4895 25.4898 32.4527 14.0849 40.672 11.261C36.2379 7.3802 25.1272 7.64366 16.8578 13.7393C10.903 18.1289 7.03983 24.8076 5.76008 32.7725C4.83938 38.8839 5.65 45.1315 8.09961 50.8039C13.2881 63.0704 24.917 71.3739 38.1825 72.2844C39.175 72.3605 40.1695 72.3983 41.1659 72.3976C67.6226 72.3976 79.1003 52.2755 76.6258 29.8794Z" fill="url(#paint9_radial)"/>
</g>
<path d="M49.1949 57.9424C66.2915 56.9006 73.61 42.7159 74.0689 32.6533C74.7848 16.9309 65.4757 -0.018648 40.8486 1.50401C36.402 1.34165 31.9568 1.86396 27.6683 3.05271C24.9429 3.85943 22.3514 5.0652 19.9778 6.63095L19.9218 6.66902L19.8589 6.71209C19.4763 6.97922 19.102 7.26038 18.7361 7.55556C25.1106 3.98416 32.4758 2.59949 39.7089 3.61269C53.848 5.47193 66.7754 16.4922 66.7754 31.0335C66.7754 42.222 58.1461 50.7679 48.0412 50.1539C33.0292 49.2523 29.245 33.8254 37.0544 27.1598C34.9488 26.706 30.9916 27.5955 28.2362 31.7227C25.7637 35.4292 25.9036 41.1492 27.4293 45.2072C31.3236 53.5851 39.9989 58.6611 49.1949 57.9424Z" fill="url(#paint10_radial)"/>
<path d="M68.4643 11.7398C67.474 10.6907 66.4127 9.71135 65.2879 8.80866C65.9352 9.37336 66.5523 9.9719 67.1365 10.6018C69.3251 12.9417 70.9892 15.7232 72.0176 18.76C74.1061 25.1001 73.9702 33.0349 69.982 39.2668C65.4751 46.374 57.5278 50.5339 49.1312 50.1808C48.7702 50.1808 48.4063 50.1808 48.0404 50.1538C33.0284 49.2522 29.2442 33.8253 37.0546 27.1597C34.948 26.7059 30.9908 27.5954 28.2354 31.7226C25.7629 35.4291 25.9028 41.1491 27.4285 45.2071C26.4536 43.2058 25.7916 41.0661 25.4659 38.8631C23.4893 25.4898 32.4525 14.0849 40.6719 11.2609C36.2378 7.38016 25.127 7.64362 16.8577 13.7393C11.994 17.382 8.45246 22.5181 6.77271 28.3648C7.30804 23.6203 8.718 19.0167 10.9309 14.7881C8.16243 16.2236 4.63714 20.7635 2.89749 24.9688C0.365604 31.3841 -0.527232 38.3314 0.300011 45.1801C0.359999 45.699 0.413988 46.2169 0.481974 46.7318C3.32113 63.1119 15.9464 76.0421 32.2285 79.2451C48.5106 82.4482 65.078 75.2607 73.8876 61.1721C82.6973 47.0836 81.9249 29.0112 71.9456 15.7287C70.8743 14.3235 69.7114 12.9909 68.4643 11.7398Z" fill="url(#paint11_linear)"/>
<path d="M72.0173 18.76C70.9892 15.7232 69.325 12.9416 67.1363 10.6018C64.5354 7.88634 61.452 5.68053 58.0441 4.09747C55.199 2.69233 52.1991 1.62685 49.1059 0.922936C43.6534 -0.272916 38.0108 -0.307045 32.5443 0.822762C26.8624 2.02486 21.8664 4.48816 18.7061 7.56753C21.226 6.14112 23.927 5.06282 26.7354 4.36194C37.8256 1.56963 49.5715 4.62765 57.9021 12.4761C59.5637 14.0548 61.0181 15.8389 62.2303 17.7854C67.1243 25.7583 66.6614 35.7817 62.8452 41.6931C60.0107 46.0847 53.9399 50.2079 48.2761 50.1598C56.9617 50.8167 65.3034 46.6315 69.9817 39.2698C73.9699 33.035 74.1059 25.1001 72.0173 18.76Z" fill="url(#paint12_linear)"/>
<path d="M72.0173 18.76C70.9892 15.7232 69.325 12.9416 67.1363 10.6018C64.5354 7.88634 61.452 5.68053 58.0441 4.09747C55.199 2.69233 52.1991 1.62685 49.1059 0.922936C43.6534 -0.272916 38.0108 -0.307045 32.5443 0.822762C26.8624 2.02486 21.8664 4.48816 18.7061 7.56753C21.226 6.14112 23.927 5.06282 26.7354 4.36194C37.8256 1.56963 49.5715 4.62765 57.9021 12.4761C59.5637 14.0548 61.0181 15.8389 62.2303 17.7854C67.1243 25.7583 66.6614 35.7817 62.8452 41.6931C60.0107 46.0847 53.9399 50.2079 48.2761 50.1598C56.9617 50.8167 65.3034 46.6315 69.9817 39.2698C73.9699 33.035 74.1059 25.1001 72.0173 18.76Z" fill="url(#paint13_linear)"/>
<defs>
<radialGradient id="paint0_radial" cx="0" cy="0" r="1" gradientUnits="userSpaceOnUse" gradientTransform="translate(71.5324 16.4163) scale(90.7617 90.76)">
<stop stop-color="#FFF36E"/>
<stop offset="0.5" stop-color="#FC4055"/>
<stop offset="1" stop-color="#E31587"/>
</radialGradient>
<radialGradient id="paint1_radial" cx="0" cy="0" r="1" gradientUnits="userSpaceOnUse" gradientTransform="translate(6.64352 20.1778) scale(53.7152 53.7142)">
<stop offset="0.001" stop-color="#C60084"/>
<stop offset="1" stop-color="#FC4055" stop-opacity="0.01"/>
</radialGradient>
<radialGradient id="paint2_radial" cx="0" cy="0" r="1" gradientUnits="userSpaceOnUse" gradientTransform="translate(79.2909 11.2412) scale(106.578 106.576)">
<stop stop-color="#FFDE67" stop-opacity="0.6"/>
<stop offset="0.093" stop-color="#FFD966" stop-opacity="0.581"/>
<stop offset="0.203" stop-color="#FFCA65" stop-opacity="0.525"/>
<stop offset="0.321" stop-color="#FEB262" stop-opacity="0.432"/>
<stop offset="0.446" stop-color="#FE8F5E" stop-opacity="0.302"/>
<stop offset="0.573" stop-color="#FD6459" stop-opacity="0.137"/>
<stop offset="0.664" stop-color="#FC4055" stop-opacity="0.01"/>
</radialGradient>
<radialGradient id="paint3_radial" cx="0" cy="0" r="1" gradientUnits="userSpaceOnUse" gradientTransform="translate(42.2923 44.4842) scale(137.493 137.491)">
<stop offset="0.153" stop-color="#810220"/>
<stop offset="0.167" stop-color="#920B27" stop-opacity="0.861"/>
<stop offset="0.216" stop-color="#CB2740" stop-opacity="0.398"/>
<stop offset="0.253" stop-color="#EF394F" stop-opacity="0.11"/>
<stop offset="0.272" stop-color="#FC4055" stop-opacity="0.01"/>
</radialGradient>
<radialGradient id="paint4_radial" cx="0" cy="0" r="1" gradientUnits="userSpaceOnUse" gradientTransform="translate(31.8874 42.7522) scale(137.493 137.491)">
<stop offset="0.113" stop-color="#810220"/>
<stop offset="0.133" stop-color="#920B27" stop-opacity="0.861"/>
<stop offset="0.204" stop-color="#CB2740" stop-opacity="0.398"/>
<stop offset="0.257" stop-color="#EF394F" stop-opacity="0.11"/>
<stop offset="0.284" stop-color="#FC4055" stop-opacity="0.01"/>
</radialGradient>
<linearGradient id="paint5_linear" x1="15.0218" y1="15.6122" x2="26.1778" y2="59.6295" gradientUnits="userSpaceOnUse">
<stop stop-color="#FFBD4F"/>
<stop offset="0.508" stop-color="#FF9640" stop-opacity="0.01"/>
</linearGradient>
<radialGradient id="paint6_radial" cx="0" cy="0" r="1" gradientUnits="userSpaceOnUse" gradientTransform="translate(69.4585 12.1139) scale(85.2024 85.5735)">
<stop stop-color="#FF9640"/>
<stop offset="0.8" stop-color="#FC4055"/>
</radialGradient>
<radialGradient id="paint7_radial" cx="0" cy="0" r="1" gradientUnits="userSpaceOnUse" gradientTransform="translate(69.4585 12.1139) scale(85.2024 85.5735)">
<stop offset="0.084" stop-color="#FFDE67"/>
<stop offset="0.147" stop-color="#FFDC66" stop-opacity="0.968"/>
<stop offset="0.246" stop-color="#FFD562" stop-opacity="0.879"/>
<stop offset="0.369" stop-color="#FFCB5D" stop-opacity="0.734"/>
<stop offset="0.511" stop-color="#FFBC55" stop-opacity="0.533"/>
<stop offset="0.667" stop-color="#FFAA4B" stop-opacity="0.28"/>
<stop offset="0.822" stop-color="#FF9640" stop-opacity="0.01"/>
</radialGradient>
<radialGradient id="paint8_radial" cx="0" cy="0" r="1" gradientUnits="userSpaceOnUse" gradientTransform="translate(49.9434 38.722) rotate(75.7546) scale(41.9386 41.7788)">
<stop offset="0.363" stop-color="#FC4055"/>
<stop offset="0.443" stop-color="#FD604D" stop-opacity="0.633"/>
<stop offset="0.545" stop-color="#FE8644" stop-opacity="0.181"/>
<stop offset="0.59" stop-color="#FF9640" stop-opacity="0.01"/>
</radialGradient>
<radialGradient id="paint9_radial" cx="0" cy="0" r="1" gradientUnits="userSpaceOnUse" gradientTransform="translate(42.7446 42.1729) scale(41.7816 41.9635)">
<stop offset="0.216" stop-color="#FC4055" stop-opacity="0.8"/>
<stop offset="0.267" stop-color="#FD5251" stop-opacity="0.633"/>
<stop offset="0.41" stop-color="#FE8345" stop-opacity="0.181"/>
<stop offset="0.474" stop-color="#FF9640" stop-opacity="0.01"/>
</radialGradient>
<radialGradient id="paint10_radial" cx="0" cy="0" r="1" gradientUnits="userSpaceOnUse" gradientTransform="translate(86.4636 2.45054) scale(144.008 147.208)">
<stop offset="0.054" stop-color="#FFF36E"/>
<stop offset="0.457" stop-color="#FF9640"/>
<stop offset="0.639" stop-color="#FF9640"/>
</radialGradient>
<linearGradient id="paint11_linear" x1="19.2534" y1="-11.1275" x2="-14.6924" y2="63.0122" gradientUnits="userSpaceOnUse">
<stop stop-color="#FFF36E" stop-opacity="0.8"/>
<stop offset="0.094" stop-color="#FFF36E" stop-opacity="0.699"/>
<stop offset="0.752" stop-color="#FFF36E" stop-opacity="0.01"/>
</linearGradient>
<linearGradient id="paint12_linear" x1="6.33057" y1="9.30764" x2="24.9353" y2="73.195" gradientUnits="userSpaceOnUse">
<stop stop-color="#B833E1"/>
<stop offset="0.371" stop-color="#9059FF"/>
<stop offset="0.614" stop-color="#5B6DF8"/>
<stop offset="1" stop-color="#0090ED"/>
</linearGradient>
<linearGradient id="paint13_linear" x1="5.72588" y1="18.8707" x2="42.4185" y2="62.3885" gradientUnits="userSpaceOnUse">
<stop offset="0.805" stop-color="#722291" stop-opacity="0.01"/>
<stop offset="1" stop-color="#592ACB" stop-opacity="0.5"/>
</linearGradient>
</defs>
</svg>
