<svg width="218" height="54" viewBox="0 0 218 54" fill="none" xmlns="http://www.w3.org/2000/svg">
<path d="M27 54C41.9117 54 54 41.9117 54 27C54 12.0883 41.9117 0 27 0C12.0883 0 0 12.0883 0 27C0 41.9117 12.0883 54 27 54Z" fill="url(#paint0_radial)"/>
<rect y="7" width="218" height="40" rx="4" fill="black"/>
<path fill-rule="evenodd" clip-rule="evenodd" d="M50 27C50 39.7025 39.7025 50 27 50C14.2975 50 4 39.7025 4 27C4 14.2975 14.2975 4 27 4C39.7025 4 50 14.2975 50 27ZM7 27C7 38.0457 15.9543 47 27 47C38.0457 47 47 38.0457 47 27C47 15.9543 38.0457 7 27 7C15.9543 7 7 15.9543 7 27Z" fill="url(#paint1_radial)"/>
<path d="M26.8031 19C23.6031 19 21 21.6228 21 24.8469C21 27.3596 23.5962 30.6264 25.4917 33.0117C25.6866 33.2569 25.8734 33.4921 26.0486 33.7153C26.1089 33.7925 26.1838 33.8569 26.2692 33.9049C26.3545 33.9529 26.4485 33.9835 26.5457 33.995C26.643 34.0064 26.7415 33.9985 26.8356 33.9716C26.9298 33.9448 27.0177 33.8995 27.0942 33.8384C27.2493 33.7144 27.3491 33.5341 27.372 33.3368C27.3949 33.1396 27.339 32.9412 27.2165 32.7849C27.0395 32.5594 26.8507 32.3219 26.654 32.0742C24.9952 29.9871 22.4887 26.833 22.4887 24.8469C22.4887 22.45 24.4241 20.5 26.8031 20.5C29.1821 20.5 31.1175 22.45 31.1175 24.8469C31.1175 25.8635 30.3818 27.4094 29.1492 28.9817C28.9864 29.1891 28.8184 29.3924 28.6453 29.5914C28.2802 29.1012 27.9496 28.6626 27.6477 28.2622C26.2942 26.4672 25.6149 25.5661 25.6145 25.0184C25.6139 24.8614 25.6443 24.7059 25.704 24.5607C25.7636 24.4155 25.8514 24.2835 25.9622 24.1723C26.072 24.0608 26.2029 23.9724 26.3473 23.9121C26.4917 23.8518 26.6467 23.8209 26.8031 23.8212C27.1194 23.8228 27.4222 23.9498 27.645 24.1743C27.8678 24.3987 27.9925 24.7025 27.9917 25.0187C27.9917 25.1817 27.8837 25.5187 27.581 25.9763C27.4714 26.1418 27.4316 26.344 27.4702 26.5387C27.5088 26.7335 27.6227 26.9051 27.7872 27.0163C27.8685 27.071 27.9598 27.109 28.0559 27.1281C28.1519 27.1473 28.2508 27.1472 28.3468 27.1278C28.4428 27.1085 28.5341 27.0703 28.6153 27.0155C28.6964 26.9607 28.7659 26.8903 28.8197 26.8085C29.2582 26.146 29.4805 25.5439 29.4805 25.0187C29.4805 23.5312 28.2794 22.3211 26.8031 22.3211C26.4508 22.3204 26.1019 22.3899 25.7768 22.5256C25.4517 22.6612 25.1568 22.8603 24.9095 23.1112C24.6597 23.3619 24.4618 23.6596 24.3273 23.987C24.1928 24.3145 24.1242 24.6653 24.1257 25.0193C24.1264 26.0715 24.81 26.9783 26.462 29.1693C26.8956 29.7443 27.387 30.3958 27.9566 31.1691C28.0269 31.2559 28.1144 31.3273 28.2134 31.379C28.3125 31.4307 28.4211 31.4614 28.5326 31.4694C28.644 31.4774 28.7559 31.4624 28.8613 31.4254C28.9667 31.3883 29.0634 31.33 29.1454 31.2541C29.5598 30.8276 29.9512 30.3793 30.3178 29.911C31.1724 28.8206 32.6062 26.7125 32.6062 24.8469C32.6062 21.6228 30.0031 19 26.8031 19Z" fill="white"/>
<path d="M162.369 22.9297V22.3379C162.818 22.5488 163.23 22.6543 163.605 22.6543C164.492 22.6543 165.168 22.3008 165.633 21.5938C166.098 20.8828 166.33 19.8359 166.33 18.4531H166.307C165.92 19.3555 165.232 19.8066 164.244 19.8066C163.896 19.8066 163.58 19.7422 163.295 19.6133C163.014 19.4844 162.77 19.3066 162.562 19.0801C162.359 18.8496 162.201 18.5781 162.088 18.2656C161.979 17.9492 161.924 17.6035 161.924 17.2285C161.924 16.8145 161.986 16.4375 162.111 16.0977C162.24 15.7578 162.418 15.4668 162.645 15.2246C162.871 14.9824 163.139 14.7949 163.447 14.6621C163.76 14.5254 164.098 14.457 164.461 14.457C164.832 14.457 165.168 14.5371 165.469 14.6973C165.77 14.8535 166.025 15.0918 166.236 15.4121C166.447 15.7285 166.609 16.125 166.723 16.6016C166.836 17.0742 166.893 17.627 166.893 18.2598C166.893 19.041 166.82 19.7344 166.676 20.3398C166.535 20.9453 166.326 21.457 166.049 21.875C165.771 22.2891 165.428 22.6055 165.018 22.8242C164.607 23.0391 164.133 23.1465 163.594 23.1465C163.176 23.1465 162.768 23.0742 162.369 22.9297ZM164.385 14.9492C164.111 14.9492 163.857 15.0039 163.623 15.1133C163.393 15.2227 163.193 15.375 163.025 15.5703C162.857 15.7617 162.727 15.9902 162.633 16.2559C162.539 16.5215 162.492 16.8086 162.492 17.1172C162.492 17.457 162.537 17.7637 162.627 18.0371C162.721 18.3066 162.85 18.5371 163.014 18.7285C163.178 18.916 163.375 19.0605 163.605 19.1621C163.836 19.2637 164.092 19.3145 164.373 19.3145C164.631 19.3145 164.875 19.2637 165.105 19.1621C165.336 19.0566 165.535 18.918 165.703 18.7461C165.875 18.5703 166.01 18.3672 166.107 18.1367C166.209 17.9023 166.26 17.6562 166.26 17.3984C166.26 17.043 166.213 16.7148 166.119 16.4141C166.029 16.1133 165.9 15.8555 165.732 15.6406C165.568 15.4219 165.371 15.252 165.141 15.1309C164.91 15.0098 164.658 14.9492 164.385 14.9492ZM168.844 17.8379C168.711 17.8379 168.6 17.791 168.51 17.6973C168.42 17.6035 168.375 17.4902 168.375 17.3574C168.375 17.2246 168.42 17.1152 168.51 17.0293C168.6 16.9395 168.711 16.8945 168.844 16.8945C168.977 16.8945 169.09 16.9395 169.184 17.0293C169.277 17.1152 169.324 17.2246 169.324 17.3574C169.324 17.4902 169.277 17.6035 169.184 17.6973C169.09 17.791 168.977 17.8379 168.844 17.8379ZM168.844 23.1055C168.711 23.1055 168.6 23.0605 168.51 22.9707C168.42 22.877 168.375 22.7637 168.375 22.6309C168.375 22.4941 168.42 22.3828 168.51 22.2969C168.6 22.207 168.711 22.1621 168.844 22.1621C168.977 22.1621 169.09 22.207 169.184 22.2969C169.277 22.3828 169.324 22.4941 169.324 22.6309C169.324 22.7637 169.277 22.877 169.184 22.9707C169.09 23.0605 168.977 23.1055 168.844 23.1055ZM175.025 14.5977V20.3164H176.338V20.8027H175.025V23H174.486V20.8027H170.479V20.2754C170.854 19.8496 171.234 19.3926 171.621 18.9043C172.008 18.4121 172.377 17.916 172.729 17.416C173.084 16.916 173.41 16.4238 173.707 15.9395C174.004 15.4551 174.252 15.0078 174.451 14.5977H175.025ZM171.1 20.3164H174.486V15.5586C174.201 16.0508 173.904 16.5273 173.596 16.9883C173.291 17.4492 172.988 17.8848 172.688 18.2949C172.391 18.7012 172.105 19.0762 171.832 19.4199C171.559 19.7637 171.314 20.0625 171.1 20.3164ZM179.643 14.4102V23H179.104V15.2598C178.834 15.5176 178.525 15.7402 178.178 15.9277C177.834 16.1152 177.457 16.2812 177.047 16.4258V15.9336C177.293 15.8516 177.521 15.7598 177.732 15.6582C177.943 15.5527 178.145 15.4375 178.336 15.3125C178.531 15.1875 178.719 15.0508 178.898 14.9023C179.082 14.75 179.268 14.5859 179.455 14.4102H179.643ZM190.682 23L189.721 20.3867H186.076L185.115 23H184.477L187.646 14.5977H188.197L191.332 23H190.682ZM188.104 15.9688C188.061 15.8516 188.025 15.7363 187.998 15.623C187.971 15.5254 187.941 15.4277 187.91 15.3301H187.887C187.82 15.5879 187.756 15.7969 187.693 15.957L186.281 19.8535H189.521L188.104 15.9688ZM200.039 23V17.0352C200.039 16.8906 200.061 16.4785 200.104 15.7988H200.08C199.959 16.1152 199.857 16.3594 199.775 16.5312L196.787 23H196.6L193.6 16.5664C193.502 16.3594 193.41 16.0957 193.324 15.7754H193.295C193.322 16.1504 193.336 16.5234 193.336 16.8945V23H192.756V14.5977H193.295L196.43 21.3652C196.449 21.4043 196.471 21.457 196.494 21.5234C196.518 21.5898 196.543 21.6562 196.57 21.7227C196.609 21.8242 196.65 21.9375 196.693 22.0625H196.729L196.793 21.875C196.797 21.8594 196.863 21.6738 196.992 21.3184L200.08 14.5977H200.596V23H200.039ZM157.102 39.1465C156.328 39.1465 155.723 38.791 155.285 38.0801C154.848 37.3691 154.629 36.3359 154.629 34.9805C154.629 33.4844 154.857 32.3574 155.314 31.5996C155.775 30.8379 156.432 30.457 157.283 30.457C158.9 30.457 159.709 31.8926 159.709 34.7637C159.709 36.1934 159.48 37.2812 159.023 38.0273C158.566 38.7734 157.926 39.1465 157.102 39.1465ZM157.236 30.9492C156.592 30.9492 156.09 31.2793 155.73 31.9395C155.371 32.5996 155.191 33.5898 155.191 34.9102C155.191 36.1133 155.363 37.0391 155.707 37.6875C156.051 38.332 156.539 38.6543 157.172 38.6543C157.793 38.6543 158.275 38.3262 158.619 37.6699C158.967 37.0098 159.141 36.0684 159.141 34.8457C159.141 32.248 158.506 30.9492 157.236 30.9492ZM161.309 38.9297V38.3379C161.758 38.5488 162.17 38.6543 162.545 38.6543C163.432 38.6543 164.107 38.3008 164.572 37.5938C165.037 36.8828 165.27 35.8359 165.27 34.4531H165.246C164.859 35.3555 164.172 35.8066 163.184 35.8066C162.836 35.8066 162.52 35.7422 162.234 35.6133C161.953 35.4844 161.709 35.3066 161.502 35.0801C161.299 34.8496 161.141 34.5781 161.027 34.2656C160.918 33.9492 160.863 33.6035 160.863 33.2285C160.863 32.8145 160.926 32.4375 161.051 32.0977C161.18 31.7578 161.357 31.4668 161.584 31.2246C161.811 30.9824 162.078 30.7949 162.387 30.6621C162.699 30.5254 163.037 30.457 163.4 30.457C163.771 30.457 164.107 30.5371 164.408 30.6973C164.709 30.8535 164.965 31.0918 165.176 31.4121C165.387 31.7285 165.549 32.125 165.662 32.6016C165.775 33.0742 165.832 33.627 165.832 34.2598C165.832 35.041 165.76 35.7344 165.615 36.3398C165.475 36.9453 165.266 37.457 164.988 37.875C164.711 38.2891 164.367 38.6055 163.957 38.8242C163.547 39.0391 163.072 39.1465 162.533 39.1465C162.115 39.1465 161.707 39.0742 161.309 38.9297ZM163.324 30.9492C163.051 30.9492 162.797 31.0039 162.562 31.1133C162.332 31.2227 162.133 31.375 161.965 31.5703C161.797 31.7617 161.666 31.9902 161.572 32.2559C161.479 32.5215 161.432 32.8086 161.432 33.1172C161.432 33.457 161.477 33.7637 161.566 34.0371C161.66 34.3066 161.789 34.5371 161.953 34.7285C162.117 34.916 162.314 35.0605 162.545 35.1621C162.775 35.2637 163.031 35.3145 163.312 35.3145C163.57 35.3145 163.814 35.2637 164.045 35.1621C164.275 35.0566 164.475 34.918 164.643 34.7461C164.814 34.5703 164.949 34.3672 165.047 34.1367C165.148 33.9023 165.199 33.6562 165.199 33.3984C165.199 33.043 165.152 32.7148 165.059 32.4141C164.969 32.1133 164.84 31.8555 164.672 31.6406C164.508 31.4219 164.311 31.252 164.08 31.1309C163.85 31.0098 163.598 30.9492 163.324 30.9492ZM167.783 39.1055C167.65 39.1055 167.539 39.0605 167.449 38.9707C167.359 38.877 167.314 38.7637 167.314 38.6309C167.314 38.4941 167.359 38.3828 167.449 38.2969C167.539 38.207 167.65 38.1621 167.783 38.1621C167.916 38.1621 168.029 38.207 168.123 38.2969C168.217 38.3828 168.264 38.4941 168.264 38.6309C168.264 38.7637 168.217 38.877 168.123 38.9707C168.029 39.0605 167.916 39.1055 167.783 39.1055ZM169.688 39V38.6074C169.688 38.3457 169.709 38.1113 169.752 37.9043C169.795 37.6934 169.859 37.5 169.945 37.3242C170.035 37.1484 170.145 36.9844 170.273 36.832C170.406 36.6758 170.559 36.5215 170.73 36.3691C170.906 36.2129 171.104 36.0547 171.322 35.8945C171.545 35.7305 171.787 35.5527 172.049 35.3613C172.303 35.1777 172.539 34.9961 172.758 34.8164C172.98 34.6367 173.174 34.4434 173.338 34.2363C173.502 34.0293 173.631 33.8027 173.725 33.5566C173.822 33.3066 173.871 33.0215 173.871 32.7012C173.871 32.1465 173.717 31.7168 173.408 31.4121C173.104 31.1035 172.674 30.9492 172.119 30.9492C171.744 30.9492 171.383 31.0312 171.035 31.1953C170.688 31.3594 170.348 31.5879 170.016 31.8809V31.248C170.336 31.002 170.682 30.8086 171.053 30.668C171.424 30.5273 171.811 30.457 172.213 30.457C172.549 30.457 172.854 30.5078 173.127 30.6094C173.4 30.7109 173.633 30.8555 173.824 31.043C174.02 31.2305 174.17 31.457 174.275 31.7227C174.381 31.9883 174.434 32.2852 174.434 32.6133C174.434 33 174.377 33.3438 174.264 33.6445C174.154 33.9414 174.004 34.2129 173.812 34.459C173.621 34.7012 173.396 34.9258 173.139 35.1328C172.885 35.3359 172.615 35.5391 172.33 35.7422C171.951 36.0117 171.631 36.252 171.369 36.4629C171.107 36.6699 170.895 36.873 170.73 37.0723C170.566 37.2715 170.447 37.4766 170.373 37.6875C170.303 37.8984 170.268 38.1426 170.268 38.4199V38.5078H174.445V39H169.688ZM175.986 38.7012V38.0859C176.627 38.4648 177.23 38.6543 177.797 38.6543C178.473 38.6543 179.002 38.4824 179.385 38.1387C179.768 37.791 179.959 37.3379 179.959 36.7793C179.959 36.1582 179.738 35.6875 179.297 35.3672C178.859 35.0469 178.234 34.8867 177.422 34.8867H176.777V34.3945H177.352C178.102 34.3945 178.672 34.2363 179.062 33.9199C179.457 33.5996 179.654 33.1484 179.654 32.5664C179.654 32.0625 179.512 31.668 179.227 31.3828C178.941 31.0938 178.525 30.9492 177.979 30.9492C177.451 30.9492 176.898 31.1328 176.32 31.5V30.9258C176.953 30.6133 177.533 30.457 178.061 30.457C178.725 30.457 179.25 30.6367 179.637 30.9961C180.027 31.3555 180.223 31.832 180.223 32.4258C180.223 33.5625 179.678 34.2852 178.588 34.5938V34.6172C179.174 34.6758 179.643 34.8945 179.994 35.2734C180.346 35.6484 180.521 36.123 180.521 36.6973C180.521 37.4316 180.268 38.0234 179.76 38.4727C179.252 38.9219 178.594 39.1465 177.785 39.1465C177.16 39.1465 176.561 38.998 175.986 38.7012ZM182.83 39.1055C182.697 39.1055 182.586 39.0605 182.496 38.9707C182.406 38.877 182.361 38.7637 182.361 38.6309C182.361 38.4941 182.406 38.3828 182.496 38.2969C182.586 38.207 182.697 38.1621 182.83 38.1621C182.963 38.1621 183.076 38.207 183.17 38.2969C183.264 38.3828 183.311 38.4941 183.311 38.6309C183.311 38.7637 183.264 38.877 183.17 38.9707C183.076 39.0605 182.963 39.1055 182.83 39.1055ZM184.734 39V38.6074C184.734 38.3457 184.756 38.1113 184.799 37.9043C184.842 37.6934 184.906 37.5 184.992 37.3242C185.082 37.1484 185.191 36.9844 185.32 36.832C185.453 36.6758 185.605 36.5215 185.777 36.3691C185.953 36.2129 186.15 36.0547 186.369 35.8945C186.592 35.7305 186.834 35.5527 187.096 35.3613C187.35 35.1777 187.586 34.9961 187.805 34.8164C188.027 34.6367 188.221 34.4434 188.385 34.2363C188.549 34.0293 188.678 33.8027 188.771 33.5566C188.869 33.3066 188.918 33.0215 188.918 32.7012C188.918 32.1465 188.764 31.7168 188.455 31.4121C188.15 31.1035 187.721 30.9492 187.166 30.9492C186.791 30.9492 186.43 31.0312 186.082 31.1953C185.734 31.3594 185.395 31.5879 185.062 31.8809V31.248C185.383 31.002 185.729 30.8086 186.1 30.668C186.471 30.5273 186.857 30.457 187.26 30.457C187.596 30.457 187.9 30.5078 188.174 30.6094C188.447 30.7109 188.68 30.8555 188.871 31.043C189.066 31.2305 189.217 31.457 189.322 31.7227C189.428 31.9883 189.48 32.2852 189.48 32.6133C189.48 33 189.424 33.3438 189.311 33.6445C189.201 33.9414 189.051 34.2129 188.859 34.459C188.668 34.7012 188.443 34.9258 188.186 35.1328C187.932 35.3359 187.662 35.5391 187.377 35.7422C186.998 36.0117 186.678 36.252 186.416 36.4629C186.154 36.6699 185.941 36.873 185.777 37.0723C185.613 37.2715 185.494 37.4766 185.42 37.6875C185.35 37.8984 185.314 38.1426 185.314 38.4199V38.5078H189.492V39H184.734ZM193.383 39.1465C192.609 39.1465 192.004 38.791 191.566 38.0801C191.129 37.3691 190.91 36.3359 190.91 34.9805C190.91 33.4844 191.139 32.3574 191.596 31.5996C192.057 30.8379 192.713 30.457 193.564 30.457C195.182 30.457 195.99 31.8926 195.99 34.7637C195.99 36.1934 195.762 37.2812 195.305 38.0273C194.848 38.7734 194.207 39.1465 193.383 39.1465ZM193.518 30.9492C192.873 30.9492 192.371 31.2793 192.012 31.9395C191.652 32.5996 191.473 33.5898 191.473 34.9102C191.473 36.1133 191.645 37.0391 191.988 37.6875C192.332 38.332 192.82 38.6543 193.453 38.6543C194.074 38.6543 194.557 38.3262 194.9 37.6699C195.248 37.0098 195.422 36.0684 195.422 34.8457C195.422 32.248 194.787 30.9492 193.518 30.9492ZM199.57 39.1465C198.797 39.1465 198.191 38.791 197.754 38.0801C197.316 37.3691 197.098 36.3359 197.098 34.9805C197.098 33.4844 197.326 32.3574 197.783 31.5996C198.244 30.8379 198.9 30.457 199.752 30.457C201.369 30.457 202.178 31.8926 202.178 34.7637C202.178 36.1934 201.949 37.2812 201.492 38.0273C201.035 38.7734 200.395 39.1465 199.57 39.1465ZM199.705 30.9492C199.061 30.9492 198.559 31.2793 198.199 31.9395C197.84 32.5996 197.66 33.5898 197.66 34.9102C197.66 36.1133 197.832 37.0391 198.176 37.6875C198.52 38.332 199.008 38.6543 199.641 38.6543C200.262 38.6543 200.744 38.3262 201.088 37.6699C201.436 37.0098 201.609 36.0684 201.609 34.8457C201.609 32.248 200.975 30.9492 199.705 30.9492ZM203.297 39V38.6074C203.297 38.3457 203.318 38.1113 203.361 37.9043C203.404 37.6934 203.469 37.5 203.555 37.3242C203.645 37.1484 203.754 36.9844 203.883 36.832C204.016 36.6758 204.168 36.5215 204.34 36.3691C204.516 36.2129 204.713 36.0547 204.932 35.8945C205.154 35.7305 205.396 35.5527 205.658 35.3613C205.912 35.1777 206.148 34.9961 206.367 34.8164C206.59 34.6367 206.783 34.4434 206.947 34.2363C207.111 34.0293 207.24 33.8027 207.334 33.5566C207.432 33.3066 207.48 33.0215 207.48 32.7012C207.48 32.1465 207.326 31.7168 207.018 31.4121C206.713 31.1035 206.283 30.9492 205.729 30.9492C205.354 30.9492 204.992 31.0312 204.645 31.1953C204.297 31.3594 203.957 31.5879 203.625 31.8809V31.248C203.945 31.002 204.291 30.8086 204.662 30.668C205.033 30.5273 205.42 30.457 205.822 30.457C206.158 30.457 206.463 30.5078 206.736 30.6094C207.01 30.7109 207.242 30.8555 207.434 31.043C207.629 31.2305 207.779 31.457 207.885 31.7227C207.99 31.9883 208.043 32.2852 208.043 32.6133C208.043 33 207.986 33.3438 207.873 33.6445C207.764 33.9414 207.613 34.2129 207.422 34.459C207.23 34.7012 207.006 34.9258 206.748 35.1328C206.494 35.3359 206.225 35.5391 205.939 35.7422C205.561 36.0117 205.24 36.252 204.979 36.4629C204.717 36.6699 204.504 36.873 204.34 37.0723C204.176 37.2715 204.057 37.4766 203.982 37.6875C203.912 37.8984 203.877 38.1426 203.877 38.4199V38.5078H208.055V39H203.297Z" fill="white"/>
<path fill-rule="evenodd" clip-rule="evenodd" d="M102 27.999H103V26H102V23H87V30.999H102V27.999ZM88 23.999H97V29.999H88V23.999ZM98 23.999H101V29.999H98V23.999Z" fill="white"/>
<path fill-rule="evenodd" clip-rule="evenodd" d="M70.233 25.565L71 24.776C69.0155 23.002 66.3883 22 63.5 22C60.6117 22 57.9845 23.002 56 24.776L56.767 25.565C58.565 23.957 60.9184 23 63.5 23C66.0816 23 68.435 23.957 70.233 25.565ZM68.8777 26.961L68.2864 27.57C67.0048 26.528 65.333 26 63.5 26C61.667 26 59.9942 26.528 58.7126 27.57L58.1223 26.961C59.5689 25.719 61.4456 25 63.5 25C65.5544 25 67.432 25.719 68.8777 26.961ZM66.9262 28.972L66.1378 29.783C65.4019 29.272 64.4951 29 63.4999 29C62.5048 29 61.597 29.272 60.8621 29.783L60.0728 28.972C61.0019 28.296 62.197 28 63.4999 28C64.8038 28 65.999 28.296 66.9262 28.972ZM64.4718 31.5C64.4718 32.0523 64.0371 32.5 63.5009 32.5C62.9647 32.5 62.53 32.0523 62.53 31.5C62.53 30.9477 62.9647 30.5 63.5009 30.5C64.0371 30.5 64.4718 30.9477 64.4718 31.5Z" fill="white"/>
<path fill-rule="evenodd" clip-rule="evenodd" d="M131.141 34L131.859 34.695C136.038 30.369 136.038 23.327 131.859 19L131.141 19.695C134.948 23.639 134.948 30.057 131.141 34ZM128.982 31.916L129.701 32.611C132.771 29.433 132.771 24.263 129.701 21.084L128.982 21.779C131.681 24.574 131.681 29.121 128.982 31.916ZM127.543 30.527L126.824 29.832C128.414 28.187 128.414 25.509 126.824 23.863L127.543 23.168C129.503 25.198 129.503 28.498 127.543 30.527ZM124 31.434V22.262L121.707 24.555L121.414 24.848H120V28.848H121.414L124 31.434ZM125 20.848H124L121 23.848H119V29.848H121L124 32.848H125V20.848Z" fill="white"/>
<defs>
<radialGradient id="paint0_radial" cx="0" cy="0" r="1" gradientUnits="userSpaceOnUse" gradientTransform="translate(54) rotate(-45) scale(76.3675)">
<stop stop-color="#B833E1"/>
<stop offset="0.371" stop-color="#9059FF"/>
<stop offset="0.614" stop-color="#5B6DF8"/>
<stop offset="1" stop-color="#0090ED"/>
</radialGradient>
<radialGradient id="paint1_radial" cx="0" cy="0" r="1" gradientUnits="userSpaceOnUse" gradientTransform="translate(50 4) rotate(135) scale(65.0538)">
<stop stop-color="#E22850"/>
<stop offset="1" stop-color="#FFA436"/>
</radialGradient>
</defs>
</svg>
