<svg width="80" height="80" viewBox="0 0 80 80" fill="none" xmlns="http://www.w3.org/2000/svg">
<path d="M46.5065 48.092C46.8438 50.0678 47.1335 51.8915 47.219 53.3163C47.2884 54.9047 47.1961 56.496 46.9435 58.0657C52.4083 58.8915 57.9391 59.1984 63.4618 58.9823L63.7087 56.4319C64.6586 46.7812 67.9119 44.2071 68.5911 38.826C69.0804 34.8771 68.7193 30.8692 67.532 27.0714L46.5065 48.092ZM46.1741 62.6868C45.8464 64.4203 45.5282 66.1871 45.3335 68.0536C45.0461 69.208 45.0212 70.4122 45.2608 71.5775C45.5004 72.7428 45.9983 73.8395 46.7179 74.7869C47.4374 75.7343 48.3603 76.5083 49.4185 77.0518C50.4768 77.5953 51.6435 77.8946 52.8327 77.9275C58.6982 78.6874 61.2818 73.2921 62.0654 70.1623C62.5515 68.0537 62.8692 65.9097 63.0153 63.7507C62.0654 63.7744 61.1156 63.7934 60.1372 63.7934C55.4606 63.8017 50.791 63.4316 46.1741 62.6868ZM72.1578 8.19266C71.2672 7.30229 70.0594 6.80211 68.8 6.80211C67.5407 6.80211 66.3329 7.30229 65.4422 8.19266L33.4031 40.2318C33.4031 39.8377 33.3651 39.4387 33.4031 39.0493C34.5781 32.861 35.2642 26.5899 35.4548 20.294C34.2437 10.7573 30.107 1.2111 23.2727 2.05174C15.6072 3.00161 10.6964 14.0249 12.0214 24.5732C12.7006 29.9542 15.9539 32.5284 16.9038 42.1791L17.1508 44.7247C21.1827 44.8671 25.2196 44.7577 29.2379 44.397L24.2225 49.4124C23.0067 49.4694 21.7814 49.5453 20.613 49.5453C19.5634 49.5453 18.5613 49.5453 17.5924 49.4978C17.7377 51.4285 18.0058 53.348 18.3951 55.2446L8.44992 65.185C7.99631 65.6231 7.63449 66.1472 7.38559 66.7266C7.13668 67.3061 7.00566 67.9293 7.00018 68.5599C6.9947 69.1905 7.11487 69.8159 7.35367 70.3996C7.59247 70.9832 7.94512 71.5135 8.39105 71.9594C8.83699 72.4054 9.36726 72.758 9.95094 72.9968C10.5346 73.2356 11.16 73.3558 11.7906 73.3503C12.4212 73.3448 13.0445 73.2138 13.6239 72.9649C14.2033 72.716 14.7274 72.3542 15.1655 71.9006L72.1578 14.9083C73.0482 14.0176 73.5484 12.8098 73.5484 11.5505C73.5484 10.2911 73.0482 9.0833 72.1578 8.19266Z" fill="url(#paint0_radial)"/>
<defs>
<radialGradient id="paint0_radial" cx="0" cy="0" r="1" gradientUnits="userSpaceOnUse" gradientTransform="translate(73.5484 2) rotate(131.207) scale(101.018 100.134)">
<stop stop-color="#9D62FC"/>
<stop offset="1" stop-color="#FD3296"/>
</radialGradient>
</defs>
</svg>
