<svg width="80" height="80" viewBox="0 0 80 80" fill="none" xmlns="http://www.w3.org/2000/svg">
<path fill-rule="evenodd" clip-rule="evenodd" d="M62.2266 9.52326C56.3558 3.39387 48.2421 -0.0478241 39.7783 0.000502144C22.5027 0.000502144 9 13.8053 9 31.4324C9 47.7619 34.0198 75.5601 36.8792 78.6843C37.8564 79.7541 39.3271 80.2185 40.7373 79.9026C42.1475 79.5867 43.2829 78.5384 43.7158 77.1527C44.1488 75.767 43.8135 74.2543 42.8363 73.1845C42.7568 73.1047 36.1941 65.8782 29.7108 56.9947C18.72 41.9228 17.0818 34.4967 17.0818 31.4324C17.0818 18.3568 27.0103 8.12586 39.7485 8.12586C46.0264 8.077 52.0491 10.6209 56.4085 15.1627C60.6356 19.569 62.8788 25.5262 62.6138 31.642C62.3755 38.1199 55.8922 48.3708 49.6174 56.2361L47.3736 58.5818C45.217 60.4316 41.9664 59.7347 40.1751 57.5378C41.8776 59.6371 43.7578 61.8949 45.8942 64.3211C46.8569 65.4226 48.2483 66.0491 49.7068 66.0379C51.1659 66.0294 52.5497 65.3849 53.4994 64.2711C57.4708 59.6598 70.2686 43.7095 70.7055 31.9414C71.0567 23.616 67.9912 15.5109 62.2266 9.52326ZM46.897 43.2204H46.9566C47.112 43.2296 47.2678 43.2296 47.4232 43.2204C47.248 43.2319 47.0722 43.2319 46.897 43.2204ZM43.6205 38.7088V38.5691C43.6557 38.3726 43.7055 38.1791 43.7695 37.9902C43.698 38.2246 43.6481 38.4652 43.6205 38.7088Z" fill="url(#paint0_linear)"/>
<path fill-rule="evenodd" clip-rule="evenodd" d="M62.2266 9.52326C56.3558 3.39387 48.2421 -0.0478241 39.7783 0.000502144C22.5027 0.000502144 9 13.8053 9 31.4324C9 47.7619 34.0198 75.5601 36.8792 78.6843C37.8564 79.7541 39.3271 80.2185 40.7373 79.9026C42.1475 79.5867 43.2829 78.5384 43.7158 77.1527C44.1488 75.767 43.8135 74.2543 42.8363 73.1845C42.7568 73.1047 36.1941 65.8782 29.7108 56.9947C18.72 41.9228 17.0818 34.4967 17.0818 31.4324C17.0818 18.3568 27.0103 8.12586 39.7485 8.12586C46.0264 8.077 52.0491 10.6209 56.4085 15.1627C60.6356 19.569 62.8788 25.5262 62.6138 31.642C62.3755 38.1199 55.8922 48.3708 49.6174 56.2361L47.3736 58.5818C45.217 60.4316 41.9664 59.7347 40.1751 57.5378C41.8776 59.6371 43.7578 61.8949 45.8942 64.3211C46.8569 65.4226 48.2483 66.0491 49.7068 66.0379C51.1659 66.0294 52.5497 65.3849 53.4994 64.2711C57.4708 59.6598 70.2686 43.7095 70.7055 31.9414C71.0567 23.616 67.9912 15.5109 62.2266 9.52326ZM46.897 43.2204H46.9566C47.112 43.2296 47.2678 43.2296 47.4232 43.2204C47.248 43.2319 47.0722 43.2319 46.897 43.2204ZM43.6205 38.7088V38.5691C43.6557 38.3726 43.7055 38.1791 43.7695 37.9902C43.698 38.2246 43.6481 38.4652 43.6205 38.7088Z" fill="url(#paint1_linear)"/>
<path d="M47.2409 58.4225C45.0916 60.2826 41.8479 59.5664 40.0634 57.3483L39.7577 56.9703C28.3309 42.6866 26.2604 35.7437 25.8858 33.2471C25.3475 29.2578 26.5813 25.2322 29.2576 22.2458C32.0254 19.1773 35.9933 17.496 40.1028 17.6504C43.8979 17.7631 47.473 19.4728 49.9621 22.3652C52.6105 25.4567 53.8863 29.5086 53.4917 33.5753C53.3191 36.4084 52.3589 39.1352 50.7212 41.4432V41.4432C49.863 42.6445 48.422 43.2755 46.9661 43.0876C45.5103 42.8997 44.2731 41.923 43.7422 40.5426C43.2113 39.1621 43.4719 37.5992 44.4212 36.4698V36.4698C45.0761 35.3615 45.4518 34.1081 45.5156 32.8193C45.6972 30.9679 45.116 29.1227 43.9085 27.7166C42.8889 26.5107 41.4163 25.7895 39.8465 25.7272C38.0961 25.654 36.4021 26.3594 35.2126 27.6569C34.1117 28.873 33.6088 30.5228 33.8422 32.1529C34.4436 36.629 41.9564 47.1627 49.4297 56.0253L47.2409 58.4225Z" fill="url(#paint2_linear)"/>
<path d="M34.7561 50.5431C36.172 52.5449 37.7475 54.6268 39.652 56.9589L39.9612 57.3393C41.766 59.5713 45.0465 60.2819 47.2203 58.4203L49.4738 56.0681C46.3428 52.3647 43.2318 48.4011 40.5794 44.7178L34.7561 50.5431Z" fill="url(#paint3_linear)"/>
<defs>
<linearGradient id="paint0_linear" x1="28.9031" y1="-19.2147" x2="-22.1875" y2="33.7654" gradientUnits="userSpaceOnUse">
<stop stop-color="#FF9640"/>
<stop offset="0.6" stop-color="#FC4055"/>
<stop offset="1" stop-color="#E31587"/>
</linearGradient>
<linearGradient id="paint1_linear" x1="28.9031" y1="-19.2147" x2="-22.1875" y2="33.7654" gradientUnits="userSpaceOnUse">
<stop stop-color="#FFF36E" stop-opacity="0.8"/>
<stop offset="0.09" stop-color="#FFF36E" stop-opacity="0.7"/>
<stop offset="0.75" stop-color="#FFF36E" stop-opacity="0.01"/>
</linearGradient>
<linearGradient id="paint2_linear" x1="68.0715" y1="35.0328" x2="32.6443" y2="13.7653" gradientUnits="userSpaceOnUse">
<stop stop-color="#B833E1"/>
<stop offset="0.37" stop-color="#9059FF"/>
<stop offset="0.61" stop-color="#5B6DF8"/>
<stop offset="1" stop-color="#0090ED"/>
</linearGradient>
<linearGradient id="paint3_linear" x1="51.3696" y1="56.3544" x2="44.6096" y2="47.6492" gradientUnits="userSpaceOnUse">
<stop stop-color="#722291" stop-opacity="0.5"/>
<stop offset="0.5" stop-color="#722291" stop-opacity="0.01"/>
</linearGradient>
</defs>
</svg>
