<svg width="81" height="42" viewBox="0 0 81 42" fill="none" xmlns="http://www.w3.org/2000/svg">
<rect x="21" y="5" width="60" height="32" rx="16" fill="#3FE1B0"/>
<path fill-rule="evenodd" clip-rule="evenodd" d="M65 33C71.6274 33 77 27.6274 77 21C77 14.3726 71.6274 9 65 9C58.3726 9 53 14.3726 53 21C53 27.6274 58.3726 33 65 33Z" fill="white"/>
<rect x="2.5" y="2.5" width="37" height="37" rx="18.5" fill="#FF4F5E" stroke="#F9F9FA" stroke-width="5"/>
<path d="M19.854 23.854L21.854 21.854C21.9004 21.8075 21.9372 21.7523 21.9622 21.6915C21.9873 21.6308 22.0001 21.5657 22 21.5V17.5C22 17.3674 21.9473 17.2402 21.8536 17.1465C21.7598 17.0527 21.6326 17 21.5 17C21.3674 17 21.2402 17.0527 21.1464 17.1465C21.0527 17.2402 21 17.3674 21 17.5V21.293L19.146 23.146C19.0982 23.1921 19.0602 23.2473 19.0339 23.3083C19.0077 23.3693 18.994 23.4349 18.9934 23.5013C18.9928 23.5677 19.0054 23.6335 19.0306 23.695C19.0557 23.7564 19.0929 23.8123 19.1398 23.8592C19.1867 23.9061 19.2426 23.9433 19.304 23.9684C19.3655 23.9936 19.4313 24.0062 19.4977 24.0056C19.5641 24.0051 19.6297 23.9913 19.6907 23.9651C19.7517 23.9389 19.8069 23.9008 19.853 23.853L19.854 23.854ZM21 13C19.5655 13.0068 18.1591 13.3986 16.9278 14.1346C15.6964 14.8706 14.6853 15.9237 14 17.184V14.5C14 14.3674 13.9473 14.2402 13.8536 14.1465C13.7598 14.0527 13.6326 14 13.5 14C13.3674 14 13.2402 14.0527 13.1464 14.1465C13.0527 14.2402 13 14.3674 13 14.5V19.5C13 19.6326 13.0527 19.7598 13.1464 19.8536C13.2402 19.9473 13.3674 20 13.5 20H18.5C18.6326 20 18.7598 19.9473 18.8536 19.8536C18.9473 19.7598 19 19.6326 19 19.5C19 19.3674 18.9473 19.2402 18.8536 19.1465C18.7598 19.0527 18.6326 19 18.5 19H15.344C15.3642 18.9727 15.3829 18.9443 15.4 18.915C15.8906 17.5963 16.8289 16.492 18.0511 15.795C19.2733 15.098 20.7016 14.8527 22.0863 15.1019C23.471 15.3511 24.7241 16.079 25.6266 17.1584C26.529 18.2378 27.0235 19.6 27.0235 21.007C27.0235 22.414 26.529 23.7762 25.6266 24.8556C24.7241 25.935 23.471 26.6629 22.0863 26.9121C20.7016 27.1613 19.2733 26.916 18.0511 26.219C16.8289 25.522 15.8906 24.4177 15.4 23.099C15.3032 22.8561 15.1151 22.6608 14.876 22.5549C14.6369 22.449 14.3659 22.441 14.121 22.5325C13.8761 22.6241 13.6767 22.8079 13.5657 23.0446C13.4547 23.2814 13.4408 23.5522 13.527 23.799C14.0396 25.1648 14.9164 26.3642 16.0622 27.2672C17.2079 28.1702 18.5791 28.7423 20.0269 28.9215C21.4747 29.1007 22.9439 28.8801 24.2752 28.2837C25.6066 27.6873 26.7493 26.7378 27.5794 25.5382C28.4096 24.3386 28.8955 22.9346 28.9845 21.4785C29.0735 20.0224 28.7622 18.5697 28.0843 17.2779C27.4065 15.9861 26.3879 14.9045 25.1391 14.1504C23.8903 13.3963 22.4588 12.9985 21 13Z" fill="white"/>
</svg>
