<svg width="80" height="80" viewBox="0 0 80 80" fill="none" xmlns="http://www.w3.org/2000/svg">
<rect x="43" y="43" width="32" height="32" rx="16" fill="#0060DF"/>
<path fill-rule="evenodd" clip-rule="evenodd" d="M66.1222 32.6044C67.2329 31.3456 68.4202 30 70.875 30C74.9837 30 78 34.275 78 39.5C78 42.2213 77.1818 44.6848 75.8173 46.421C71.987 41.3084 65.8799 38 59 38C47.402 38 38 47.402 38 59C38 59.9761 38.0666 60.9367 38.1955 61.8774C36.4654 60.1005 33.656 59 30.5 59C25.275 59 21 62.0163 21 66.125C21 68.5798 22.3456 69.7671 23.6044 70.8778C24.7107 71.854 25.75 72.7711 25.75 74.4375C25.7318 75.3766 25.3506 76.2722 24.6864 76.9364C24.0222 77.6006 23.1266 77.9818 22.1875 78H6.75C5.49022 78 4.28204 77.4996 3.39124 76.6088C2.50045 75.718 2 74.5098 2 73.25V53.0625C2.01824 52.1234 2.39943 51.2278 3.06362 50.5636C3.7278 49.8994 4.62338 49.5182 5.5625 49.5C7.22891 49.5 8.14597 50.5393 9.12216 51.6456C10.2329 52.9044 11.4202 54.25 13.875 54.25C17.9837 54.25 21 49.975 21 44.75C21 39.525 17.9837 35.25 13.875 35.25C11.4202 35.25 10.2329 36.5956 9.12216 37.8544C8.14597 38.9607 7.22891 40 5.5625 40C4.62338 39.9818 3.7278 39.6006 3.06362 38.9364C2.39943 38.2722 2.01824 37.3766 2 36.4375V25.75C2 24.4902 2.50045 23.282 3.39124 22.3912C4.28204 21.5004 5.49022 21 6.75 21H22.1875C23.1266 20.9818 24.0222 20.6006 24.6864 19.9364C25.3506 19.2722 25.7318 18.3766 25.75 17.4375C25.75 15.7711 24.7107 14.854 23.6044 13.8778C22.3456 12.7671 21 11.5798 21 9.125C21 5.01625 25.275 2 30.5 2C35.725 2 40 5.01625 40 9.125C40 11.5798 38.6544 12.7671 37.3956 13.8778C36.2893 14.854 35.25 15.7711 35.25 17.4375C35.2682 18.3766 35.6494 19.2722 36.3136 19.9364C36.9778 20.6006 37.8734 20.9818 38.8125 21H54.25C55.5098 21 56.718 21.5004 57.6088 22.3912C58.4996 23.282 59 24.4902 59 25.75V31.1875C59.0182 32.1266 59.3994 33.0222 60.0636 33.6864C60.7278 34.3506 61.6234 34.7318 62.5625 34.75C64.2289 34.75 65.146 33.7107 66.1222 32.6044ZM39.8215 67.5677C39.4149 69.0961 38.3788 70.0103 37.3956 70.8778C36.2893 71.854 35.25 72.7711 35.25 74.4375C35.2682 75.3766 35.6494 76.2722 36.3136 76.9364C36.9778 77.6006 37.8734 77.9818 38.8125 78H50.0441C45.5133 75.8606 41.871 72.1483 39.8215 67.5677Z" fill="url(#paint0_radial)"/>
<path d="M58 52L58 63.586L53.707 59.293C53.3147 58.914 52.691 58.9194 52.3052 59.3052C51.9195 59.6909 51.9141 60.3146 52.293 60.707L58.293 66.707C58.6835 67.0974 59.3165 67.0974 59.707 66.707L65.707 60.707C66.086 60.3146 66.0806 59.6909 65.6949 59.3052C65.3091 58.9194 64.6854 58.914 64.293 59.293L60 63.586L60 52C60 51.4477 59.5523 51 59 51C58.4478 51 58 51.4477 58 52Z" fill="white"/>
<defs>
<radialGradient id="paint0_radial" cx="0" cy="0" r="1" gradientUnits="userSpaceOnUse" gradientTransform="translate(78 2) rotate(135) scale(107.48)">
<stop stop-color="#E22850"/>
<stop offset="1" stop-color="#FFA436"/>
</radialGradient>
</defs>
</svg>
