<svg width="24" height="24" viewBox="0 0 24 24" fill="none" xmlns="http://www.w3.org/2000/svg">
<path d="M19.2222 9.33333C19.2222 8.84241 18.8243 8.44444 18.3333 8.44444H16.7244C16.3244 7.75111 15.7733 7.15556 15.1067 6.70222L15.9289 5.88C16.275 5.5339 16.275 4.97276 15.9289 4.62667C15.5828 4.28057 15.0217 4.28057 14.6756 4.62667L13.3733 5.92889C12.9644 5.83111 12.5467 5.77778 12.1111 5.77778C11.6756 5.77778 11.2578 5.83111 10.8578 5.92889L9.54835 4.62547C9.20109 4.2798 8.63956 4.28044 8.29309 4.62691C7.94681 4.97319 7.94595 5.53434 8.29116 5.88168L9.10667 6.70222C8.44889 7.15556 7.89778 7.75111 7.49778 8.44444H5.88889C5.39797 8.44444 5 8.84241 5 9.33333C5 9.82425 5.39797 10.2222 5.88889 10.2222H6.85778C6.81333 10.5156 6.77778 10.8089 6.77778 11.1111V12H5.88889C5.39797 12 5 12.398 5 12.8889C5 13.3798 5.39797 13.7778 5.88889 13.7778H6.77778V14.6667C6.77778 14.9689 6.81333 15.2622 6.85778 15.5556H5.88889C5.39797 15.5556 5 15.9535 5 16.4444C5 16.9354 5.39797 17.3333 5.88889 17.3333H7.49778C8.42222 18.9244 10.1378 20 12.1111 20C14.0844 20 15.8 18.9244 16.7244 17.3333H18.3333C18.8243 17.3333 19.2222 16.9354 19.2222 16.4444C19.2222 15.9535 18.8243 15.5556 18.3333 15.5556H17.3644C17.4089 15.2622 17.4444 14.9689 17.4444 14.6667V13.7778H18.3333C18.8243 13.7778 19.2222 13.3798 19.2222 12.8889C19.2222 12.398 18.8243 12 18.3333 12H17.4444V11.1111C17.4444 10.8089 17.4089 10.5156 17.3644 10.2222H18.3333C18.8243 10.2222 19.2222 9.82425 19.2222 9.33333ZM13.8889 14.6667C13.8889 15.1576 13.4909 15.5556 13 15.5556H11.2222C10.7313 15.5556 10.3333 15.1576 10.3333 14.6667C10.3333 14.1757 10.7313 13.7778 11.2222 13.7778H13C13.4909 13.7778 13.8889 14.1757 13.8889 14.6667ZM13.8889 11.1111C13.8889 11.602 13.4909 12 13 12H11.2222C10.7313 12 10.3333 11.602 10.3333 11.1111C10.3333 10.6202 10.7313 10.2222 11.2222 10.2222H13C13.4909 10.2222 13.8889 10.6202 13.8889 11.1111Z" fill="#0C0C0D" fill-opacity="0.6"/>
</svg>
