<svg width="12" height="12" viewBox="0 0 12 12" fill="none" xmlns="http://www.w3.org/2000/svg">
<path d="M7.22253 5.98947L11.7594 1.45261C11.9155 1.29095 12.0019 1.07443 12 0.849695C11.998 0.624955 11.9079 0.409973 11.7489 0.251051C11.59 0.0921301 11.375 0.00198533 11.1503 3.24023e-05C10.9256 -0.00192053 10.709 0.0844746 10.5474 0.24061L6.01053 4.77747L1.47368 0.24061C1.31202 0.0844746 1.0955 -0.00192053 0.87076 3.24023e-05C0.64602 0.00198533 0.431038 0.0921301 0.272117 0.251051C0.113196 0.409973 0.0230508 0.624955 0.0210979 0.849695C0.0191449 1.07443 0.10554 1.29095 0.261676 1.45261L4.79853 5.98947L0.261676 10.5263C0.17981 10.6054 0.114511 10.7 0.0695886 10.8045C0.0246666 10.9091 0.00102135 11.0216 3.23629e-05 11.1354C-0.000956623 11.2492 0.0207306 11.3621 0.0638285 11.4674C0.106926 11.5728 0.170572 11.6685 0.251051 11.7489C0.331531 11.8294 0.427232 11.8931 0.532572 11.9362C0.637912 11.9793 0.75078 12.001 0.864591 12C0.978402 11.999 1.09088 11.9753 1.19545 11.9304C1.30003 11.8855 1.39461 11.8202 1.47368 11.7383L6.01053 7.20147L10.5474 11.7383C10.709 11.8945 10.9256 11.9809 11.1503 11.9789C11.375 11.9769 11.59 11.8868 11.7489 11.7279C11.9079 11.569 11.998 11.354 12 11.1292C12.0019 10.9045 11.9155 10.688 11.7594 10.5263L7.22253 5.98947Z" fill="#0C0C0D" fill-opacity="0.6"/>
</svg>
