<svg width="24" height="24" viewBox="0 0 24 24" fill="none" xmlns="http://www.w3.org/2000/svg">
<path d="M12 20C10.4178 20 8.87103 19.5308 7.55544 18.6518C6.23985 17.7727 5.21447 16.5233 4.60897 15.0615C4.00347 13.5997 3.84504 11.9911 4.15372 10.4393C4.4624 8.88743 5.22433 7.46197 6.34315 6.34315C7.46197 5.22433 8.88743 4.4624 10.4393 4.15372C11.9911 3.84504 13.5997 4.00347 15.0615 4.60897C16.5233 5.21447 17.7727 6.23985 18.6518 7.55544C19.5308 8.87103 20 10.4178 20 12C19.9976 14.121 19.154 16.1545 17.6542 17.6542C16.1545 19.154 14.121 19.9976 12 20ZM12 6C10.8133 6 9.65328 6.3519 8.66658 7.01119C7.67989 7.67047 6.91085 8.60755 6.45673 9.7039C6.0026 10.8003 5.88378 12.0067 6.11529 13.1705C6.3468 14.3344 6.91825 15.4035 7.75736 16.2426C8.59648 17.0818 9.66558 17.6532 10.8295 17.8847C11.9933 18.1162 13.1997 17.9974 14.2961 17.5433C15.3925 17.0892 16.3295 16.3201 16.9888 15.3334C17.6481 14.3467 18 13.1867 18 12C17.9984 10.4092 17.3658 8.88399 16.2409 7.75912C15.116 6.63424 13.5908 6.00159 12 6Z" fill="#0C0C0D" fill-opacity="0.8"/>
<path d="M12 11C11.7348 11 11.4804 11.1054 11.2929 11.2929C11.1054 11.4804 11 11.7348 11 12V15C11 15.2652 11.1054 15.5196 11.2929 15.7071C11.4804 15.8946 11.7348 16 12 16C12.2652 16 12.5196 15.8946 12.7071 15.7071C12.8946 15.5196 13 15.2652 13 15V12C13 11.7348 12.8946 11.4804 12.7071 11.2929C12.5196 11.1054 12.2652 11 12 11Z" fill="#0C0C0D" fill-opacity="0.8"/>
<path d="M12 10.188C12.6561 10.188 13.188 9.65613 13.188 9.00001C13.188 8.3439 12.6561 7.81201 12 7.81201C11.3439 7.81201 10.812 8.3439 10.812 9.00001C10.812 9.65613 11.3439 10.188 12 10.188Z" fill="#0C0C0D" fill-opacity="0.8"/>
</svg>
