<svg width="18" height="18" viewBox="0 0 18 18" fill="none" xmlns="http://www.w3.org/2000/svg">
<path d="M15.75 15.75H14.4653L13.9718 14.3655H11.7218L11.2245 15.75H9.98025L12.2603 9.75H13.4625L15.75 15.75ZM13.6395 13.41L12.8527 11.1465L12.0623 13.41H13.6395ZM15.75 9C16.164 9 16.5 9.33675 16.5 9.75V15.75C16.5 16.1632 16.164 16.5 15.75 16.5H9.75C9.336 16.5 9 16.1632 9 15.75V9.75C9 9.33675 9.336 9 9.75 9H15.75ZM15.75 7.5H9.75C8.508 7.5 7.5 8.50725 7.5 9.75V15.75C7.5 16.9928 8.508 18 9.75 18H15.75C16.9928 18 18 16.9928 18 15.75V9.75C18 8.50725 16.9928 7.5 15.75 7.5ZM3.85875 5.9145C3.888 6.3495 3.936 6.75075 4.005 7.10925C3.08625 7.27725 3.04875 6.37125 3.85875 5.9145ZM10.5 2.25V6H9.75C9.1935 6 8.66925 6.12975 8.193 6.34875C8.04675 5.74425 7.60575 5.20125 6.933 4.87575C6.9915 4.65225 7.02525 4.48425 7.05825 4.31775L6.04575 4.122C6.02925 4.206 5.9985 4.36725 5.9445 4.58175C5.60325 4.5315 5.2395 4.5255 4.87125 4.56225C4.8795 4.3155 4.89525 4.0725 4.91625 3.84H6.04725V2.8815H5.052C5.10075 2.637 5.14275 2.49075 5.184 2.35275L4.197 2.05575C4.1235 2.298 4.0635 2.53575 4.002 2.8815H2.874V3.84H3.87975C3.85275 4.1505 3.83625 4.4715 3.83175 4.79625C2.72175 5.20425 2.25 5.982 2.25 6.687C2.25 7.5195 2.907 8.2515 3.94575 8.157C5.23575 8.04 6.09675 7.065 6.60225 5.86725C7.266 6.26925 7.23075 6.738 7.18125 7.03125C6.4575 7.716 6 8.67825 6 9.75V10.5H2.25C1.008 10.5 0 9.49275 0 8.25V2.25C0 1.00725 1.008 0 2.25 0H8.25C9.49275 0 10.5 1.00725 10.5 2.25ZM4.875 5.60025C5.121 5.56875 5.3685 5.56275 5.6025 5.58075C5.442 5.93775 5.22975 6.29175 4.95975 6.57C4.91925 6.273 4.89075 5.9475 4.875 5.60025Z" fill="#0C0C0D" fill-opacity="0.8"/>
</svg>
