<svg width="14" height="14" viewBox="0 0 14 14" fill="none" xmlns="http://www.w3.org/2000/svg">
<path d="M13.7418 11.106L8.78877 1.2C8.62269 0.867707 8.36735 0.588239 8.05137 0.392915C7.73539 0.197592 7.37125 0.0941315 6.99977 0.0941315C6.62829 0.0941315 6.26415 0.197592 5.94817 0.392915C5.63218 0.588239 5.37684 0.867707 5.21077 1.2L0.257768 11.11C0.106325 11.4148 0.0351562 11.7531 0.0509959 12.0931C0.0668356 12.433 0.16916 12.7633 0.348286 13.0527C0.527411 13.342 0.777412 13.5809 1.07463 13.7467C1.37185 13.9125 1.70645 13.9996 2.04677 14H11.9518C12.2927 14.0002 12.6281 13.9131 12.9259 13.7472C13.2238 13.5813 13.4743 13.342 13.6536 13.0521C13.833 12.7621 13.9352 12.4311 13.9507 12.0905C13.9661 11.7499 13.8942 11.411 13.7418 11.106ZM5.99977 4C5.99977 3.73478 6.10512 3.48043 6.29266 3.29289C6.4802 3.10535 6.73455 3 6.99977 3C7.26498 3 7.51934 3.10535 7.70687 3.29289C7.89441 3.48043 7.99977 3.73478 7.99977 4V8C7.99977 8.26521 7.89441 8.51957 7.70687 8.7071C7.51934 8.89464 7.26498 9 6.99977 9C6.73455 9 6.4802 8.89464 6.29266 8.7071C6.10512 8.51957 5.99977 8.26521 5.99977 8V4ZM6.99977 12.25C6.75254 12.25 6.51087 12.1767 6.30531 12.0393C6.09974 11.902 5.93953 11.7068 5.84492 11.4783C5.75031 11.2499 5.72555 10.9986 5.77379 10.7561C5.82202 10.5137 5.94107 10.2909 6.11588 10.1161C6.2907 9.9413 6.51343 9.82224 6.7559 9.77401C6.99838 9.72578 7.24971 9.75054 7.47812 9.84515C7.70653 9.93976 7.90175 10.1 8.0391 10.3055C8.17646 10.5111 8.24977 10.7528 8.24977 11C8.24977 11.3315 8.11807 11.6495 7.88365 11.8839C7.64923 12.1183 7.33129 12.25 6.99977 12.25Z" fill="#FF4F5E"/>
</svg>
