<svg width="24" height="24" viewBox="0 0 24 24" fill="none" xmlns="http://www.w3.org/2000/svg">
<path d="M19.8451 10.0641C19.7827 9.87748 19.6714 9.71105 19.5228 9.58213C19.3741 9.45321 19.1936 9.3665 19.0001 9.33106L14.9111 8.60006L12.9851 4.73506C12.8939 4.55201 12.7534 4.39802 12.5795 4.29039C12.4056 4.18275 12.2051 4.12573 12.0006 4.12573C11.7961 4.12573 11.5956 4.18275 11.4217 4.29039C11.2478 4.39802 11.1074 4.55201 11.0161 4.73506L9.08912 8.60006L5.00812 9.32906C4.81293 9.36316 4.63057 9.44935 4.48031 9.57852C4.33006 9.7077 4.21749 9.87506 4.15449 10.0629C4.09149 10.2508 4.08041 10.4522 4.12241 10.6458C4.16442 10.8395 4.25795 11.0182 4.39312 11.1631L7.32012 14.3101L6.71112 18.6701C6.68304 18.8704 6.71074 19.0746 6.79117 19.2602C6.8716 19.4458 7.00165 19.6056 7.16702 19.7221C7.33239 19.8386 7.52668 19.9072 7.72853 19.9204C7.93037 19.9336 8.13196 19.891 8.31112 19.7971L12.0001 17.8731L15.6901 19.8001C15.8693 19.894 16.0709 19.9366 16.2727 19.9234C16.4746 19.9102 16.6688 19.8416 16.8342 19.7251C16.9996 19.6086 17.1296 19.4488 17.2101 19.2632C17.2905 19.0776 17.3182 18.8734 17.2901 18.6731L16.6801 14.3101L19.6061 11.1641C19.7413 11.0192 19.8349 10.8406 19.877 10.6469C19.9191 10.4533 19.908 10.2519 19.8451 10.0641Z" fill="#FFA436"/>
</svg>
