<svg width="24" height="24" viewBox="0 0 24 24" fill="none" xmlns="http://www.w3.org/2000/svg">
<path d="M7.79993 19.9221C7.6425 19.9222 7.48687 19.8885 7.34357 19.8233C7.20028 19.758 7.07265 19.6628 6.96932 19.544C6.86599 19.4253 6.78936 19.2857 6.74461 19.1347C6.69986 18.9838 6.68804 18.825 6.70993 18.6691L7.31893 14.3091L4.39193 11.1631C4.25702 11.0181 4.16374 10.8394 4.12194 10.6458C4.08015 10.4523 4.09139 10.251 4.15447 10.0633C4.21756 9.87556 4.33015 9.70835 4.48037 9.5793C4.63058 9.45025 4.81285 9.36415 5.00793 9.33008L9.08893 8.60008L11.0149 4.73408C11.1062 4.55104 11.2466 4.39705 11.4205 4.28941C11.5944 4.18178 11.7949 4.12476 11.9994 4.12476C12.204 4.12476 12.4044 4.18178 12.5783 4.28941C12.7522 4.39705 12.8927 4.55104 12.9839 4.73408L14.9109 8.60008L18.9949 9.32908C19.1896 9.36387 19.3713 9.4505 19.5209 9.57985C19.6705 9.70919 19.7824 9.87647 19.845 10.0641C19.9075 10.2517 19.9183 10.4527 19.8762 10.6459C19.8342 10.8391 19.7408 11.0174 19.6059 11.1621L16.6799 14.3101L17.2889 18.6691C17.317 18.8694 17.2893 19.0736 17.2089 19.2592C17.1285 19.4448 16.9984 19.6046 16.833 19.7211C16.6677 19.8376 16.4734 19.9062 16.2715 19.9194C16.0697 19.9327 15.8681 19.89 15.6889 19.7961L11.9999 17.8731L8.30693 19.8001C8.15025 19.8811 7.9763 19.9229 7.79993 19.9221ZM6.98093 11.0101L9.43193 13.6451L8.93193 17.2171L11.9999 15.6181L15.0669 17.2181L14.5669 13.6461L17.0179 11.0101L13.5679 10.3941L11.9999 7.24408L10.4309 10.3941L6.98093 11.0101Z" fill="#0C0C0D" fill-opacity="0.6"/>
</svg>
