<svg width="24" height="24" viewBox="0 0 24 24" fill="none" xmlns="http://www.w3.org/2000/svg">
<path d="M18.7418 15.106L13.7888 5.19998C13.6227 4.86769 13.3674 4.58822 13.0514 4.3929C12.7354 4.19758 12.3712 4.09412 11.9998 4.09412C11.6283 4.09412 11.2642 4.19758 10.9482 4.3929C10.6322 4.58822 10.3768 4.86769 10.2108 5.19998L5.25777 15.11C5.10633 15.4147 5.03516 15.7531 5.051 16.0931C5.06684 16.433 5.16916 16.7633 5.34829 17.0527C5.52741 17.342 5.77741 17.5809 6.07463 17.7467C6.37185 17.9124 6.70645 17.9996 7.04677 18H16.9518C17.2927 18.0001 17.6281 17.9131 17.9259 17.7472C18.2238 17.5813 18.4743 17.342 18.6536 17.052C18.833 16.7621 18.9352 16.4311 18.9507 16.0905C18.9661 15.7499 18.8942 15.411 18.7418 15.106ZM10.9998 7.99998C10.9998 7.73476 11.1051 7.48041 11.2927 7.29287C11.4802 7.10534 11.7346 6.99998 11.9998 6.99998C12.265 6.99998 12.5193 7.10534 12.7069 7.29287C12.8944 7.48041 12.9998 7.73476 12.9998 7.99998V12C12.9998 12.2652 12.8944 12.5196 12.7069 12.7071C12.5193 12.8946 12.265 13 11.9998 13C11.7346 13 11.4802 12.8946 11.2927 12.7071C11.1051 12.5196 10.9998 12.2652 10.9998 12V7.99998ZM11.9998 16.25C11.7525 16.25 11.5109 16.1767 11.3053 16.0393C11.0997 15.902 10.9395 15.7067 10.8449 15.4783C10.7503 15.2499 10.7256 14.9986 10.7738 14.7561C10.822 14.5136 10.9411 14.2909 11.1159 14.1161C11.2907 13.9413 11.5134 13.8222 11.7559 13.774C11.9984 13.7258 12.2497 13.7505 12.4781 13.8451C12.7065 13.9397 12.9018 14.1 13.0391 14.3055C13.1765 14.5111 13.2498 14.7528 13.2498 15C13.2498 15.3315 13.1181 15.6494 12.8837 15.8839C12.6492 16.1183 12.3313 16.25 11.9998 16.25Z" fill="#FFA436"/>
</svg>
