<svg width="24" height="24" viewBox="0 0 24 24" fill="none" xmlns="http://www.w3.org/2000/svg">
<path d="M10.4849 14.9399C10.8867 14.538 11.4317 14.3123 12 14.3123C12.5683 14.3123 13.1133 14.538 13.5152 14.9399C14.352 15.7766 14.352 17.1334 13.5152 17.9701C12.6784 18.8069 11.3217 18.8069 10.4849 17.9701C9.64807 17.1334 9.64807 15.7766 10.4849 14.9399Z" fill="#0C0C0D" fill-opacity="0.8"/>
<path d="M4.12125 8.39445C6.19506 6.2754 9.03504 5.08105 12 5.08105C14.965 5.08105 17.805 6.2754 19.8788 8.39445C20.2135 8.72916 20.2135 9.27185 19.8788 9.60657C19.5441 9.94128 19.0014 9.94128 18.6667 9.60657C16.9119 7.81348 14.5089 6.80284 12 6.80284C9.49117 6.80284 7.0881 7.81348 5.33336 9.60657C4.99865 9.94128 4.45596 9.94128 4.12125 9.60657C3.78653 9.27185 3.78653 8.72916 4.12125 8.39445Z" fill="#0C0C0D" fill-opacity="0.8"/>
<path d="M6.54547 11.8186C7.98067 10.3506 9.947 9.52307 12 9.52307C14.053 9.52307 16.0193 10.3506 17.4545 11.8186C17.7893 12.1533 17.7893 12.696 17.4545 13.0307C17.1198 13.3654 16.5771 13.3654 16.2424 13.0307C15.1257 11.8898 13.5965 11.2467 12 11.2467C10.4035 11.2467 8.87429 11.8898 7.75759 13.0307C7.42287 13.3654 6.88019 13.3654 6.54547 13.0307C6.21075 12.696 6.21075 12.1533 6.54547 11.8186Z" fill="#0C0C0D" fill-opacity="0.8"/>
</svg>
